<svg width="159" height="30" viewBox="0 0 159 30" fill="none" xmlns="http://www.w3.org/2000/svg">
<path d="M0.608 15.4C0.608 13.5333 1.01867 12.0987 1.84 11.096C2.66133 10.0827 3.83467 9.576 5.36 9.576C6.16 9.576 6.85867 9.71467 7.456 9.992C8.05333 10.2693 8.54933 10.664 8.944 11.176C9.33867 11.688 9.632 12.3013 9.824 13.016C10.016 13.7307 10.112 14.5253 10.112 15.4C10.112 17.2667 9.696 18.7067 8.864 19.72C8.04267 20.7227 6.87467 21.224 5.36 21.224C4.54933 21.224 3.84533 21.0853 3.248 20.808C2.65067 20.5307 2.15467 20.136 1.76 19.624C1.376 19.112 1.088 18.4987 0.896 17.784C0.704 17.0693 0.608 16.2747 0.608 15.4ZM2.912 15.4C2.912 15.9653 2.96 16.488 3.056 16.968C3.152 17.4373 3.296 17.8427 3.488 18.184C3.69067 18.5253 3.94667 18.792 4.256 18.984C4.56533 19.176 4.93333 19.272 5.36 19.272C6.13867 19.272 6.74133 18.968 7.168 18.36C7.59467 17.752 7.808 16.7653 7.808 15.4C7.808 14.856 7.76 14.3493 7.664 13.88C7.57867 13.4107 7.44 13 7.248 12.648C7.056 12.296 6.80533 12.024 6.496 11.832C6.18667 11.6293 5.808 11.528 5.36 11.528C4.58133 11.528 3.97867 11.8427 3.552 12.472C3.12533 13.0907 2.912 14.0667 2.912 15.4ZM21.4905 16.216H20.9145V21H18.7225V9.8H20.9145V14.76L21.4265 14.536L24.5145 9.8H27.0105L23.7465 14.504L22.8825 15.112L23.7785 15.736L27.5065 21H24.8025L21.4905 16.216ZM29.4705 15.4C29.4705 13.5333 29.8812 12.0987 30.7025 11.096C31.5238 10.0827 32.6972 9.576 34.2225 9.576C35.0225 9.576 35.7212 9.71467 36.3185 9.992C36.9158 10.2693 37.4118 10.664 37.8065 11.176C38.2012 11.688 38.4945 12.3013 38.6865 13.016C38.8785 13.7307 38.9745 14.5253 38.9745 15.4C38.9745 17.2667 38.5585 18.7067 37.7265 19.72C36.9052 20.7227 35.7372 21.224 34.2225 21.224C33.4118 21.224 32.7078 21.0853 32.1105 20.808C31.5132 20.5307 31.0172 20.136 30.6225 19.624C30.2385 19.112 29.9505 18.4987 29.7585 17.784C29.5665 17.0693 29.4705 16.2747 29.4705 15.4ZM31.7745 15.4C31.7745 15.9653 31.8225 16.488 31.9185 16.968C32.0145 17.4373 32.1585 17.8427 32.3505 18.184C32.5532 18.5253 32.8092 18.792 33.1185 18.984C33.4278 19.176 33.7958 19.272 34.2225 19.272C35.0012 19.272 35.6038 18.968 36.0305 18.36C36.4572 17.752 36.6705 16.7653 36.6705 15.4C36.6705 14.856 36.6225 14.3493 36.5265 13.88C36.4412 13.4107 36.3025 13 36.1105 12.648C35.9185 12.296 35.6678 12.024 35.3585 11.832C35.0492 11.6293 34.6705 11.528 34.2225 11.528C33.4438 11.528 32.8412 11.8427 32.4145 12.472C31.9878 13.0907 31.7745 14.0667 31.7745 15.4ZM50.8293 15.192L51.0693 12.968H50.9733L50.2853 14.76L47.9013 18.936H47.1973L44.6853 14.744L43.9813 12.968H43.9013L44.2213 15.176V21H42.1413V9.8H44.1413L47.1333 14.92L47.6613 16.2H47.7253L48.2053 14.888L51.0373 9.8H53.0213V21H50.8293V15.192ZM62.6501 11.752H58.7301V21H56.5381V9.8H64.8421V21H62.6501V11.752ZM73.8769 18.52H70.4369L69.5889 21H67.3969L71.4289 9.72H73.0449L77.0769 21H74.7729L73.8769 18.52ZM70.9969 16.76H73.3969L72.5649 14.264L72.2289 12.504H72.1489L71.8129 14.28L70.9969 16.76ZM85.9324 16.312H81.8364V21H79.6444V9.8H81.8364V14.36H85.9324V9.8H88.1244V21H85.9324V16.312ZM98.1943 14.792L98.3223 13.336H98.2423L97.4903 14.84L93.3143 21H91.6663V9.8H93.8583V15.896L93.6983 17.4H93.7943L94.5783 15.848L98.7543 9.8H100.386V21H98.1943V14.792ZM110.451 14.792L110.579 13.336H110.499L109.747 14.84L105.571 21H103.923V9.8H106.115V15.896L105.955 17.4H106.051L106.835 15.848L111.011 9.8H112.643V21H110.451V14.792Z" fill="white"/>
<circle cx="144" cy="15" r="14" stroke="white" stroke-width="2"/>
<path d="M143.5 18.705V15.705H136.81L136.788 14.1975H143.5V11.205L147.25 14.955L143.5 18.705Z" fill="white"/>
</svg>
