<svg width="162" height="30" viewBox="0 0 162 30" fill="none" xmlns="http://www.w3.org/2000/svg">
<path d="M8.496 12.408C8.496 12.6853 8.45867 12.9627 8.384 13.24C8.32 13.5173 8.208 13.7733 8.048 14.008C7.888 14.232 7.68 14.4347 7.424 14.616C7.168 14.7867 6.85867 14.9147 6.496 15V15.096C6.816 15.1493 7.12 15.24 7.408 15.368C7.696 15.496 7.94667 15.672 8.16 15.896C8.37333 16.12 8.53867 16.392 8.656 16.712C8.784 17.032 8.848 17.4107 8.848 17.848C8.848 18.424 8.72533 18.9253 8.48 19.352C8.23467 19.768 7.904 20.1093 7.488 20.376C7.08267 20.6427 6.61867 20.84 6.096 20.968C5.57333 21.096 5.03467 21.16 4.48 21.16C4.29867 21.16 4.064 21.16 3.776 21.16C3.49867 21.16 3.19467 21.1493 2.864 21.128C2.544 21.1173 2.21333 21.096 1.872 21.064C1.54133 21.032 1.23733 20.984 0.96 20.92V9.88C1.16267 9.848 1.392 9.816 1.648 9.784C1.91467 9.752 2.19733 9.72533 2.496 9.704C2.79467 9.68267 3.09867 9.66667 3.408 9.656C3.728 9.64533 4.04267 9.64 4.352 9.64C4.87467 9.64 5.38133 9.68267 5.872 9.768C6.37333 9.84267 6.816 9.98133 7.2 10.184C7.59467 10.3867 7.90933 10.6693 8.144 11.032C8.37867 11.3947 8.496 11.8533 8.496 12.408ZM4.496 19.352C4.76267 19.352 5.01867 19.32 5.264 19.256C5.52 19.192 5.744 19.096 5.936 18.968C6.128 18.8293 6.28267 18.6587 6.4 18.456C6.51733 18.2533 6.576 18.0133 6.576 17.736C6.576 17.384 6.50667 17.1067 6.368 16.904C6.22933 16.7013 6.048 16.5467 5.824 16.44C5.6 16.3227 5.34933 16.248 5.072 16.216C4.79467 16.184 4.51733 16.168 4.24 16.168H3.072V19.256C3.12533 19.2773 3.21067 19.2933 3.328 19.304C3.44533 19.3147 3.568 19.3253 3.696 19.336C3.83467 19.336 3.97333 19.3413 4.112 19.352C4.26133 19.352 4.38933 19.352 4.496 19.352ZM3.776 14.504C3.92533 14.504 4.096 14.4987 4.288 14.488C4.49067 14.4773 4.656 14.4613 4.784 14.44C5.18933 14.312 5.536 14.12 5.824 13.864C6.12267 13.608 6.272 13.272 6.272 12.856C6.272 12.5787 6.21867 12.3493 6.112 12.168C6.00533 11.9867 5.86133 11.8427 5.68 11.736C5.50933 11.6293 5.312 11.5547 5.088 11.512C4.864 11.4693 4.62933 11.448 4.384 11.448C4.10667 11.448 3.85067 11.4533 3.616 11.464C3.38133 11.4747 3.2 11.4907 3.072 11.512V14.504H3.776ZM19.5971 20.536C19.2558 20.7813 18.8185 20.9573 18.2851 21.064C17.7625 21.1707 17.2238 21.224 16.6691 21.224C15.9971 21.224 15.3571 21.1227 14.7491 20.92C14.1518 20.7067 13.6238 20.3707 13.1651 19.912C12.7065 19.4427 12.3385 18.84 12.0611 18.104C11.7945 17.3573 11.6611 16.456 11.6611 15.4C11.6611 14.3013 11.8105 13.384 12.1091 12.648C12.4185 11.9013 12.8131 11.304 13.2931 10.856C13.7838 10.3973 14.3278 10.072 14.9251 9.88C15.5225 9.67733 16.1198 9.576 16.7171 9.576C17.3571 9.576 17.8958 9.61867 18.3331 9.704C18.7811 9.78933 19.1491 9.89067 19.4371 10.008L19.0051 11.864C18.7598 11.7467 18.4665 11.6613 18.1251 11.608C17.7945 11.5547 17.3891 11.528 16.9091 11.528C16.0238 11.528 15.3091 11.8427 14.7651 12.472C14.2318 13.1013 13.9651 14.0773 13.9651 15.4C13.9651 15.976 14.0291 16.504 14.1571 16.984C14.2851 17.4533 14.4771 17.8587 14.7331 18.2C14.9998 18.5307 15.3251 18.792 15.7091 18.984C16.1038 19.1653 16.5571 19.256 17.0691 19.256C17.5491 19.256 17.9545 19.208 18.2851 19.112C18.6158 19.016 18.9038 18.8933 19.1491 18.744L19.5971 20.536ZM22.5506 9.8H29.1906V11.752H24.7426V14.36H28.7906V16.312H24.7426V19.048H29.2706V21H22.5506V9.8ZM44.4449 16.312H40.3489V21H38.1569V9.8H40.3489V14.36H44.4449V9.8H46.6369V21H44.4449V16.312ZM49.8268 15.4C49.8268 13.5333 50.2374 12.0987 51.0588 11.096C51.8801 10.0827 53.0534 9.576 54.5788 9.576C55.3788 9.576 56.0774 9.71467 56.6748 9.992C57.2721 10.2693 57.7681 10.664 58.1628 11.176C58.5574 11.688 58.8508 12.3013 59.0428 13.016C59.2348 13.7307 59.3308 14.5253 59.3308 15.4C59.3308 17.2667 58.9148 18.7067 58.0828 19.72C57.2614 20.7227 56.0934 21.224 54.5788 21.224C53.7681 21.224 53.0641 21.0853 52.4668 20.808C51.8694 20.5307 51.3734 20.136 50.9788 19.624C50.5948 19.112 50.3068 18.4987 50.1148 17.784C49.9228 17.0693 49.8268 16.2747 49.8268 15.4ZM52.1308 15.4C52.1308 15.9653 52.1788 16.488 52.2748 16.968C52.3708 17.4373 52.5148 17.8427 52.7068 18.184C52.9094 18.5253 53.1654 18.792 53.4748 18.984C53.7841 19.176 54.1521 19.272 54.5788 19.272C55.3574 19.272 55.9601 18.968 56.3868 18.36C56.8134 17.752 57.0268 16.7653 57.0268 15.4C57.0268 14.856 56.9788 14.3493 56.8828 13.88C56.7974 13.4107 56.6588 13 56.4668 12.648C56.2748 12.296 56.0241 12.024 55.7148 11.832C55.4054 11.6293 55.0268 11.528 54.5788 11.528C53.8001 11.528 53.1974 11.8427 52.7708 12.472C52.3441 13.0907 52.1308 14.0667 52.1308 15.4ZM70.0335 12.408C70.0335 12.6853 69.9962 12.9627 69.9215 13.24C69.8575 13.5173 69.7455 13.7733 69.5855 14.008C69.4255 14.232 69.2175 14.4347 68.9615 14.616C68.7055 14.7867 68.3962 14.9147 68.0335 15V15.096C68.3535 15.1493 68.6575 15.24 68.9455 15.368C69.2335 15.496 69.4842 15.672 69.6975 15.896C69.9108 16.12 70.0762 16.392 70.1935 16.712C70.3215 17.032 70.3855 17.4107 70.3855 17.848C70.3855 18.424 70.2628 18.9253 70.0175 19.352C69.7722 19.768 69.4415 20.1093 69.0255 20.376C68.6202 20.6427 68.1562 20.84 67.6335 20.968C67.1108 21.096 66.5722 21.16 66.0175 21.16C65.8362 21.16 65.6015 21.16 65.3135 21.16C65.0362 21.16 64.7322 21.1493 64.4015 21.128C64.0815 21.1173 63.7508 21.096 63.4095 21.064C63.0788 21.032 62.7748 20.984 62.4975 20.92V9.88C62.7002 9.848 62.9295 9.816 63.1855 9.784C63.4522 9.752 63.7348 9.72533 64.0335 9.704C64.3322 9.68267 64.6362 9.66667 64.9455 9.656C65.2655 9.64533 65.5802 9.64 65.8895 9.64C66.4122 9.64 66.9188 9.68267 67.4095 9.768C67.9108 9.84267 68.3535 9.98133 68.7375 10.184C69.1322 10.3867 69.4468 10.6693 69.6815 11.032C69.9162 11.3947 70.0335 11.8533 70.0335 12.408ZM66.0335 19.352C66.3002 19.352 66.5562 19.32 66.8015 19.256C67.0575 19.192 67.2815 19.096 67.4735 18.968C67.6655 18.8293 67.8202 18.6587 67.9375 18.456C68.0548 18.2533 68.1135 18.0133 68.1135 17.736C68.1135 17.384 68.0442 17.1067 67.9055 16.904C67.7668 16.7013 67.5855 16.5467 67.3615 16.44C67.1375 16.3227 66.8868 16.248 66.6095 16.216C66.3322 16.184 66.0548 16.168 65.7775 16.168H64.6095V19.256C64.6628 19.2773 64.7482 19.2933 64.8655 19.304C64.9828 19.3147 65.1055 19.3253 65.2335 19.336C65.3722 19.336 65.5108 19.3413 65.6495 19.352C65.7988 19.352 65.9268 19.352 66.0335 19.352ZM65.3135 14.504C65.4628 14.504 65.6335 14.4987 65.8255 14.488C66.0282 14.4773 66.1935 14.4613 66.3215 14.44C66.7268 14.312 67.0735 14.12 67.3615 13.864C67.6602 13.608 67.8095 13.272 67.8095 12.856C67.8095 12.5787 67.7562 12.3493 67.6495 12.168C67.5428 11.9867 67.3988 11.8427 67.2175 11.736C67.0468 11.6293 66.8495 11.5547 66.6255 11.512C66.4015 11.4693 66.1668 11.448 65.9215 11.448C65.6442 11.448 65.3882 11.4533 65.1535 11.464C64.9188 11.4747 64.7375 11.4907 64.6095 11.512V14.504H65.3135ZM73.1986 15.4C73.1986 13.5333 73.6093 12.0987 74.4306 11.096C75.252 10.0827 76.4253 9.576 77.9506 9.576C78.7506 9.576 79.4493 9.71467 80.0466 9.992C80.644 10.2693 81.14 10.664 81.5346 11.176C81.9293 11.688 82.2226 12.3013 82.4146 13.016C82.6066 13.7307 82.7026 14.5253 82.7026 15.4C82.7026 17.2667 82.2866 18.7067 81.4546 19.72C80.6333 20.7227 79.4653 21.224 77.9506 21.224C77.14 21.224 76.436 21.0853 75.8386 20.808C75.2413 20.5307 74.7453 20.136 74.3506 19.624C73.9666 19.112 73.6786 18.4987 73.4866 17.784C73.2946 17.0693 73.1986 16.2747 73.1986 15.4ZM75.5026 15.4C75.5026 15.9653 75.5506 16.488 75.6466 16.968C75.7426 17.4373 75.8866 17.8427 76.0786 18.184C76.2813 18.5253 76.5373 18.792 76.8466 18.984C77.156 19.176 77.524 19.272 77.9506 19.272C78.7293 19.272 79.332 18.968 79.7586 18.36C80.1853 17.752 80.3986 16.7653 80.3986 15.4C80.3986 14.856 80.3506 14.3493 80.2546 13.88C80.1693 13.4107 80.0306 13 79.8386 12.648C79.6466 12.296 79.396 12.024 79.0866 11.832C78.7773 11.6293 78.3986 11.528 77.9506 11.528C77.172 11.528 76.5693 11.8427 76.1426 12.472C75.716 13.0907 75.5026 14.0667 75.5026 15.4ZM93.4534 20.536C93.112 20.7813 92.6747 20.9573 92.1414 21.064C91.6187 21.1707 91.08 21.224 90.5254 21.224C89.8534 21.224 89.2134 21.1227 88.6054 20.92C88.008 20.7067 87.48 20.3707 87.0214 19.912C86.5627 19.4427 86.1947 18.84 85.9174 18.104C85.6507 17.3573 85.5174 16.456 85.5174 15.4C85.5174 14.3013 85.6667 13.384 85.9654 12.648C86.2747 11.9013 86.6694 11.304 87.1494 10.856C87.64 10.3973 88.184 10.072 88.7814 9.88C89.3787 9.67733 89.976 9.576 90.5734 9.576C91.2134 9.576 91.752 9.61867 92.1894 9.704C92.6374 9.78933 93.0054 9.89067 93.2934 10.008L92.8614 11.864C92.616 11.7467 92.3227 11.6613 91.9814 11.608C91.6507 11.5547 91.2454 11.528 90.7654 11.528C89.88 11.528 89.1654 11.8427 88.6214 12.472C88.088 13.1013 87.8214 14.0773 87.8214 15.4C87.8214 15.976 87.8854 16.504 88.0134 16.984C88.1414 17.4533 88.3334 17.8587 88.5894 18.2C88.856 18.5307 89.1814 18.792 89.5654 18.984C89.96 19.1653 90.4134 19.256 90.9254 19.256C91.4054 19.256 91.8107 19.208 92.1414 19.112C92.472 19.016 92.76 18.8933 93.0054 18.744L93.4534 20.536ZM104.265 11.752H101.001V21H98.8091V11.752H95.5291V9.8H104.265V11.752ZM113.535 14.792L113.663 13.336H113.583L112.831 14.84L108.655 21H107.007V9.8H109.199V15.896L109.039 17.4H109.135L109.919 15.848L114.095 9.8H115.727V21H113.535V14.792Z" fill="#3D348B"/>
<circle cx="147" cy="15" r="14" stroke="#3D348B" stroke-width="2"/>
<path d="M146.5 18.705V15.705H139.81L139.787 14.1975H146.5V11.205L150.25 14.955L146.5 18.705Z" fill="#3D348B"/>
</svg>
